<svg width="84" height="84" viewBox="0 0 84 84" fill="none" xmlns="http://www.w3.org/2000/svg">
<circle cx="42" cy="42" r="42" fill="#77D853"/>
<path fill-rule="evenodd" clip-rule="evenodd" d="M35.1649 58.4815C39.6992 54.3163 46.7871 54.7555 50.7724 59.4487L52.9395 62.0006C55.6206 65.158 60.3536 65.544 63.511 62.8629V62.8629C66.6683 60.1817 67.0543 55.4487 64.3732 52.2914L61.3549 48.737C57.5414 44.2461 57.9566 37.5448 62.2954 33.5591L64.85 31.2124C67.9005 28.4103 68.1017 23.6658 65.2996 20.6154V20.6154C62.4974 17.5649 57.7529 17.3637 54.7025 20.1658L52.6681 22.0346C48.3786 25.9751 41.6732 25.5595 37.903 21.1197L32.2248 14.433C29.5437 11.2757 24.8106 10.8896 21.6533 13.5708V13.5708C18.496 16.2519 18.1099 20.9849 20.7911 24.1423L25.0193 29.1215C29.8979 34.8666 29.3667 43.4396 23.8161 48.5384L18.126 53.7654C15.0755 56.5676 14.8743 61.3121 17.6764 64.3625V64.3625C20.4786 67.413 25.2231 67.6142 28.2735 64.8121L35.1649 58.4815Z" fill="black"/>
</svg>
